<?xml version="1.0" encoding="UTF-8"?>
<svg xmlns="http://www.w3.org/2000/svg" xmlns:xlink="http://www.w3.org/1999/xlink" width="48px" height="48px" viewBox="0 0 48 48" version="1.1">
<defs>
<linearGradient id="linear0" gradientUnits="userSpaceOnUse" x1="0" y1="1" x2="1" y2="0" gradientTransform="matrix(48,0,0,48,0,0)">
<stop offset="0" style="stop-color:rgb(69.019608%,3.137255%,30.196078%);stop-opacity:1;"/>
<stop offset="1" style="stop-color:rgb(100%,30.980392%,54.509804%);stop-opacity:1;"/>
</linearGradient>
</defs>
<g id="surface1">
<rect x="0" y="0" width="48" height="48" style="fill:url(#linear0);stroke:none;"/>
<path style=" stroke:none;fill-rule:evenodd;fill:rgb(100%,100%,100%);fill-opacity:1;" d="M 33 38.253906 L 37.5 38.253906 L 37.5 33.765625 L 33 33.765625 Z M 21.75 38.253906 L 26.25 38.253906 L 26.25 33.765625 L 21.75 33.765625 Z M 10.5 38.253906 L 15 38.253906 L 15 33.765625 L 10.5 33.765625 Z M 38.25 32.269531 L 36 32.269531 L 36 29.277344 C 36 28.867188 35.664062 28.53125 35.25 28.53125 L 24.75 28.53125 L 24.75 26.285156 L 23.25 26.285156 L 23.25 28.53125 L 12.75 28.53125 C 12.335938 28.53125 12 28.867188 12 29.277344 L 12 32.269531 L 9.75 32.269531 C 9.335938 32.269531 9 32.605469 9 33.019531 L 9 39.003906 C 9 39.414062 9.335938 39.75 9.75 39.75 L 15.75 39.75 C 16.164062 39.75 16.5 39.414062 16.5 39.003906 L 16.5 33.019531 C 16.5 32.605469 16.164062 32.269531 15.75 32.269531 L 13.5 32.269531 L 13.5 30.027344 L 23.25 30.027344 L 23.25 32.269531 L 21 32.269531 C 20.585938 32.269531 20.25 32.605469 20.25 33.019531 L 20.25 39.003906 C 20.25 39.414062 20.585938 39.75 21 39.75 L 27 39.75 C 27.414062 39.75 27.75 39.414062 27.75 39.003906 L 27.75 33.019531 C 27.75 32.605469 27.414062 32.269531 27 32.269531 L 24.75 32.269531 L 24.75 30.027344 L 34.5 30.027344 L 34.5 32.269531 L 32.25 32.269531 C 31.835938 32.269531 31.5 32.605469 31.5 33.019531 L 31.5 39.003906 C 31.5 39.414062 31.835938 39.75 32.25 39.75 L 38.25 39.75 C 38.664062 39.75 39 39.414062 39 39.003906 L 39 33.019531 C 39 32.605469 38.664062 32.269531 38.25 32.269531 Z M 24 10.605469 L 29.210938 13.492188 L 24 16.410156 L 18.789062 13.492188 Z M 24.75 23.503906 L 24.75 17.707031 L 30 14.765625 L 30 20.53125 Z M 18 14.765625 L 23.25 17.707031 L 23.25 23.503906 L 18 20.53125 Z M 16.878906 21.617188 L 23.628906 25.441406 C 23.746094 25.507812 23.871094 25.539062 24 25.539062 C 24.128906 25.539062 24.253906 25.507812 24.371094 25.441406 L 31.121094 21.617188 C 31.355469 21.484375 31.5 21.238281 31.5 20.96875 L 31.5 13.488281 C 31.5 13.214844 31.351562 12.964844 31.113281 12.835938 L 24.363281 9.09375 C 24.136719 8.96875 23.859375 8.96875 23.636719 9.09375 L 16.886719 12.835938 C 16.648438 12.964844 16.5 13.214844 16.5 13.488281 L 16.5 20.96875 C 16.5 21.238281 16.644531 21.484375 16.878906 21.617188 Z M 16.878906 21.617188 "/>
</g>
</svg>
